<svg width="20" height="15" viewBox="0 0 20 15" fill="none" xmlns="http://www.w3.org/2000/svg">
<path opacity="0.6" d="M10 4.5C10.7233 4.5 11.417 4.81607 11.9285 5.37868C12.4399 5.94129 12.7273 6.70435 12.7273 7.5C12.7273 8.29565 12.4399 9.05871 11.9285 9.62132C11.417 10.1839 10.7233 10.5 10 10.5C9.27668 10.5 8.58299 10.1839 8.07153 9.62132C7.56006 9.05871 7.27273 8.29565 7.27273 7.5C7.27273 6.70435 7.56006 5.94129 8.07153 5.37868C8.58299 4.81607 9.27668 4.5 10 4.5ZM10 0C14.5455 0 18.4273 3.11 20 7.5C18.4273 11.89 14.5455 15 10 15C5.45455 15 1.57273 11.89 0 7.5C1.57273 3.11 5.45455 0 10 0ZM1.98182 7.5C2.71659 9.15031 3.85755 10.5407 5.27498 11.5133C6.69241 12.4858 8.32945 13.0013 10 13.0013C11.6705 13.0013 13.3076 12.4858 14.725 11.5133C16.1425 10.5407 17.2834 9.15031 18.0182 7.5C17.2834 5.84969 16.1425 4.45925 14.725 3.48675C13.3076 2.51424 11.6705 1.99868 10 1.99868C8.32945 1.99868 6.69241 2.51424 5.27498 3.48675C3.85755 4.45925 2.71659 5.84969 1.98182 7.5Z" fill="white"/>
</svg>
