<svg width="16" height="20" viewBox="0 0 16 20" fill="none" xmlns="http://www.w3.org/2000/svg">
<path d="M5 3C4.73478 3 4.48043 3.10536 4.29289 3.29289C4.10536 3.48043 4 3.73478 4 4C4 4.26522 4.10536 4.51957 4.29289 4.70711C4.48043 4.89464 4.73478 5 5 5C5.26522 5 5.51957 4.89464 5.70711 4.70711C5.89464 4.51957 6 4.26522 6 4C6 3.73478 5.89464 3.48043 5.70711 3.29289C5.51957 3.10536 5.26522 3 5 3ZM2.17 3C2.3766 2.41447 2.75974 1.90743 3.2666 1.54879C3.77346 1.19015 4.37909 0.99755 5 0.99755C5.62091 0.99755 6.22654 1.19015 6.7334 1.54879C7.24026 1.90743 7.6234 2.41447 7.83 3H15C15.2652 3 15.5196 3.10536 15.7071 3.29289C15.8946 3.48043 16 3.73478 16 4C16 4.26522 15.8946 4.51957 15.7071 4.70711C15.5196 4.89464 15.2652 5 15 5H7.83C7.6234 5.58553 7.24026 6.09257 6.7334 6.45121C6.22654 6.80985 5.62091 7.00245 5 7.00245C4.37909 7.00245 3.77346 6.80985 3.2666 6.45121C2.75974 6.09257 2.3766 5.58553 2.17 5H1C0.734784 5 0.48043 4.89464 0.292893 4.70711C0.105357 4.51957 0 4.26522 0 4C0 3.73478 0.105357 3.48043 0.292893 3.29289C0.48043 3.10536 0.734784 3 1 3H2.17ZM11 9C10.7348 9 10.4804 9.10536 10.2929 9.29289C10.1054 9.48043 10 9.73478 10 10C10 10.2652 10.1054 10.5196 10.2929 10.7071C10.4804 10.8946 10.7348 11 11 11C11.2652 11 11.5196 10.8946 11.7071 10.7071C11.8946 10.5196 12 10.2652 12 10C12 9.73478 11.8946 9.48043 11.7071 9.29289C11.5196 9.10536 11.2652 9 11 9ZM8.17 9C8.3766 8.41447 8.75974 7.90743 9.2666 7.54879C9.77346 7.19015 10.3791 6.99755 11 6.99755C11.6209 6.99755 12.2265 7.19015 12.7334 7.54879C13.2403 7.90743 13.6234 8.41447 13.83 9H15C15.2652 9 15.5196 9.10536 15.7071 9.29289C15.8946 9.48043 16 9.73478 16 10C16 10.2652 15.8946 10.5196 15.7071 10.7071C15.5196 10.8946 15.2652 11 15 11H13.83C13.6234 11.5855 13.2403 12.0926 12.7334 12.4512C12.2265 12.8099 11.6209 13.0025 11 13.0025C10.3791 13.0025 9.77346 12.8099 9.2666 12.4512C8.75974 12.0926 8.3766 11.5855 8.17 11H1C0.734784 11 0.48043 10.8946 0.292893 10.7071C0.105357 10.5196 0 10.2652 0 10C0 9.73478 0.105357 9.48043 0.292893 9.29289C0.48043 9.10536 0.734784 9 1 9H8.17ZM5 15C4.73478 15 4.48043 15.1054 4.29289 15.2929C4.10536 15.4804 4 15.7348 4 16C4 16.2652 4.10536 16.5196 4.29289 16.7071C4.48043 16.8946 4.73478 17 5 17C5.26522 17 5.51957 16.8946 5.70711 16.7071C5.89464 16.5196 6 16.2652 6 16C6 15.7348 5.89464 15.4804 5.70711 15.2929C5.51957 15.1054 5.26522 15 5 15ZM2.17 15C2.3766 14.4145 2.75974 13.9074 3.2666 13.5488C3.77346 13.1901 4.37909 12.9975 5 12.9975C5.62091 12.9975 6.22654 13.1901 6.7334 13.5488C7.24026 13.9074 7.6234 14.4145 7.83 15H15C15.2652 15 15.5196 15.1054 15.7071 15.2929C15.8946 15.4804 16 15.7348 16 16C16 16.2652 15.8946 16.5196 15.7071 16.7071C15.5196 16.8946 15.2652 17 15 17H7.83C7.6234 17.5855 7.24026 18.0926 6.7334 18.4512C6.22654 18.8099 5.62091 19.0025 5 19.0025C4.37909 19.0025 3.77346 18.8099 3.2666 18.4512C2.75974 18.0926 2.3766 17.5855 2.17 17H1C0.734784 17 0.48043 16.8946 0.292893 16.7071C0.105357 16.5196 0 16.2652 0 16C0 15.7348 0.105357 15.4804 0.292893 15.2929C0.48043 15.1054 0.734784 15 1 15H2.17Z" fill="#BBBBBB"/>
</svg>
