<svg width="23" height="21" viewBox="0 0 23 21" fill="none" xmlns="http://www.w3.org/2000/svg">
<path opacity="0.6" d="M16.6339 0C14.5136 0 12.6572 0.971479 11.5 2.61358C10.3428 0.971479 8.48638 0 6.36607 0C4.67827 0.00202691 3.06014 0.717297 1.86668 1.98889C0.673223 3.26048 0.00190236 4.98455 0 6.78285C0 14.4409 10.657 20.6396 11.1108 20.8956C11.2305 20.9641 11.3642 21 11.5 21C11.6358 21 11.7695 20.9641 11.8892 20.8956C12.343 20.6396 23 14.4409 23 6.78285C22.9981 4.98455 22.3268 3.26048 21.1333 1.98889C19.9399 0.717297 18.3217 0.00202691 16.6339 0ZM11.5 19.1233C9.62509 17.9592 1.64286 12.6566 1.64286 6.78285C1.64449 5.4487 2.14263 4.16969 3.02806 3.2263C3.91348 2.28291 5.1139 1.75215 6.36607 1.75041C8.36317 1.75041 10.0399 2.88381 10.7402 4.70423C10.8021 4.86476 10.9073 5.00205 11.0426 5.09868C11.1779 5.1953 11.3371 5.24689 11.5 5.24689C11.6629 5.24689 11.8221 5.1953 11.9574 5.09868C12.0927 5.00205 12.1979 4.86476 12.2598 4.70423C12.9601 2.88052 14.6368 1.75041 16.6339 1.75041C17.8861 1.75215 19.0865 2.28291 19.9719 3.2263C20.8574 4.16969 21.3555 5.4487 21.3571 6.78285C21.3571 12.6478 13.3729 17.9581 11.5 19.1233Z" fill="white"/>
</svg>
