<svg width="22" height="22" viewBox="0 0 22 22" fill="none" xmlns="http://www.w3.org/2000/svg">
<path d="M11.5403 20.8727C10.3453 19.6428 9.67774 17.9949 9.68 16.28C9.68 14.7946 10.171 13.4226 11 12.32H2.64C1.93983 12.32 1.26833 12.5981 0.773238 13.0932C0.278142 13.5883 0 14.2598 0 14.96V15.5892C0 18.861 3.7048 21.12 8.8 21.12C9.71914 21.1229 10.6365 21.0401 11.5403 20.8727ZM14.08 5.28C14.08 3.87966 13.5237 2.53667 12.5335 1.54648C11.5433 0.556284 10.2003 0 8.8 0C7.39966 0 6.05667 0.556284 5.06648 1.54648C4.07628 2.53667 3.52 3.87966 3.52 5.28C3.52 6.68034 4.07628 8.02333 5.06648 9.01352C6.05667 10.0037 7.39966 10.56 8.8 10.56C10.2003 10.56 11.5433 10.0037 12.5335 9.01352C13.5237 8.02333 14.08 6.68034 14.08 5.28ZM16.28 22C17.797 22 19.2519 21.3974 20.3247 20.3247C21.3974 19.2519 22 17.797 22 16.28C22 14.763 21.3974 13.3081 20.3247 12.2353C19.2519 11.1626 17.797 10.56 16.28 10.56C14.763 10.56 13.3081 11.1626 12.2353 12.2353C11.1626 13.3081 10.56 14.763 10.56 16.28C10.56 17.797 11.1626 19.2519 12.2353 20.3247C13.3081 21.3974 14.763 22 16.28 22ZM16.28 12.32C16.3967 12.32 16.5086 12.3664 16.5911 12.4489C16.6736 12.5314 16.72 12.6433 16.72 12.76V15.84H19.8C19.9167 15.84 20.0286 15.8864 20.1111 15.9689C20.1936 16.0514 20.24 16.1633 20.24 16.28C20.24 16.3967 20.1936 16.5086 20.1111 16.5911C20.0286 16.6736 19.9167 16.72 19.8 16.72H16.72V19.8C16.72 19.9167 16.6736 20.0286 16.5911 20.1111C16.5086 20.1936 16.3967 20.24 16.28 20.24C16.1633 20.24 16.0514 20.1936 15.9689 20.1111C15.8864 20.0286 15.84 19.9167 15.84 19.8V16.72H12.76C12.6433 16.72 12.5314 16.6736 12.4489 16.5911C12.3664 16.5086 12.32 16.3967 12.32 16.28C12.32 16.1633 12.3664 16.0514 12.4489 15.9689C12.5314 15.8864 12.6433 15.84 12.76 15.84H15.84V12.76C15.84 12.6433 15.8864 12.5314 15.9689 12.4489C16.0514 12.3664 16.1633 12.32 16.28 12.32Z" fill="#A2A2A2"/>
</svg>
