<svg width="23" height="23" viewBox="0 0 23 23" fill="none" xmlns="http://www.w3.org/2000/svg">
<path opacity="0.6" d="M11.5 23C14.55 23 17.4751 21.7884 19.6317 19.6317C21.7884 17.4751 23 14.55 23 11.5C23 8.45001 21.7884 5.52494 19.6317 3.36827C17.4751 1.2116 14.55 0 11.5 0C8.45001 0 5.52494 1.2116 3.36827 3.36827C1.2116 5.52494 0 8.45001 0 11.5C0 14.55 1.2116 17.4751 3.36827 19.6317C5.52494 21.7884 8.45001 23 11.5 23ZM13.7775 14.6041L7.29531 17.0973C6.42383 17.4342 5.56582 16.5762 5.90273 15.7047L8.3959 9.22246C8.54414 8.84062 8.84062 8.54414 9.22246 8.3959L15.7047 5.90273C16.5762 5.56582 17.4342 6.42383 17.0973 7.29531L14.6041 13.7775C14.4604 14.1594 14.1594 14.4559 13.7775 14.6041ZM12.9375 11.5C12.9375 11.1188 12.786 10.7531 12.5165 10.4835C12.2469 10.214 11.8812 10.0625 11.5 10.0625C11.1188 10.0625 10.7531 10.214 10.4835 10.4835C10.214 10.7531 10.0625 11.1188 10.0625 11.5C10.0625 11.8812 10.214 12.2469 10.4835 12.5165C10.7531 12.786 11.1188 12.9375 11.5 12.9375C11.8812 12.9375 12.2469 12.786 12.5165 12.5165C12.786 12.2469 12.9375 11.8812 12.9375 11.5Z" fill="white"/>
</svg>
