<svg width="12" height="11" viewBox="0 0 12 11" fill="none" xmlns="http://www.w3.org/2000/svg">
<path d="M5.9997 9.21536L3.09126 10.897C2.96278 10.9755 2.82845 11.0091 2.68829 10.9979C2.54812 10.9867 2.42548 10.9418 2.32035 10.8634C2.21523 10.7849 2.13347 10.6867 2.07506 10.5687C2.01666 10.4508 2.00498 10.3192 2.04002 10.1739L2.81093 6.99561L0.235391 4.85993C0.118587 4.75903 0.0457004 4.64401 0.0167328 4.51486C-0.0122347 4.38571 -0.00359123 4.2597 0.0426634 4.13682C0.0893853 4.0135 0.159468 3.91261 0.252912 3.83413C0.346355 3.75565 0.474841 3.7052 0.638367 3.68278L4.03738 3.3969L5.35144 0.403593C5.40984 0.269062 5.50048 0.168164 5.62336 0.100898C5.74624 0.0336328 5.87168 0 5.9997 0C6.12819 0 6.25363 0.0336328 6.37605 0.100898C6.49846 0.168164 6.5891 0.269062 6.64797 0.403593L7.96202 3.3969L11.361 3.68278C11.5246 3.7052 11.653 3.75565 11.7465 3.83413C11.8399 3.91261 11.91 4.0135 11.9567 4.13682C12.0035 4.26014 12.0123 4.38638 11.9834 4.51553C11.9544 4.64468 11.8813 4.75948 11.764 4.85993L9.18847 6.99561L9.95938 10.1739C9.99442 10.3196 9.98274 10.4515 9.92434 10.5694C9.86594 10.6874 9.78417 10.7853 9.67905 10.8634C9.57392 10.9418 9.45128 10.9867 9.31111 10.9979C9.17095 11.0091 9.03662 10.9755 8.90814 10.897L5.9997 9.21536Z" fill="#FFC700"/>
</svg>
